<svg xmlns="http://www.w3.org/2000/svg" viewBox="0 0 48 48">
  <defs>
    <linearGradient id="g" x1="0" y1="0" x2="1" y2="1">
      <stop offset="0" stop-color="#b7a7ff" />
      <stop offset="1" stop-color="#ffffff" stop-opacity="0.8" />
    </linearGradient>
  </defs>
  <rect x="6" y="6" width="36" height="36" rx="10" fill="url(#g)" />
  <path
    d="M17 33V15h9.6c3.8 0 6.4 2 6.4 5.4 0 2.3-1.2 4-3.3 4.7 2.5.6 3.9 2.3 3.9 4.9 0 3.8-2.8 6-7.2 6H17zm5.2-10.8h3.8c1.8 0 2.8-.7 2.8-2s-1-2-2.8-2h-3.8v4zm0 6.7h4.2c2.1 0 3.1-.7 3.1-2.2 0-1.4-1.1-2.2-3.1-2.2h-4.2v4.4z"
    fill="#0b0b0c"
    opacity="0.9"
  />
</svg>
